<svg xmlns="http://www.w3.org/2000/svg" viewBox="0 0 137.89 107.11"><defs><style>.cls-1{fill:#fff;}</style></defs><title>friends</title><g id="Layer_2" data-name="Layer 2"><g id="Layer_1-2" data-name="Layer 1"><path id="Union_7-2" data-name="Union 7-2" class="cls-1" d="M0,107.11v-4.82H0A40.58,40.58,0,0,1,40.57,61.72h2.52a40.56,40.56,0,0,1,40.49,38c.06.84.08,1.7.08,2.56v4.81Zm91.67-7.37A48.52,48.52,0,0,0,77.49,67.89a46.59,46.59,0,0,0-4.79-4.2A37.63,37.63,0,0,1,98,53.92h2.09a37.82,37.82,0,0,1,37.78,37.77v8Zm-75-73.06C16.66,12,28,0,41.83,0S67,12,67,26.68,55.7,53.37,41.83,53.37,16.66,41.4,16.66,26.68ZM99.08,49.55a20.87,20.87,0,0,1-15.25-6.67,23.83,23.83,0,0,1-.27-32.14A20.89,20.89,0,0,1,98.88,3.82h.17c11.84,0,21.52,10.14,21.62,22.69a23.43,23.43,0,0,1-6.1,16.12,20.87,20.87,0,0,1-15.31,6.92Z"/></g></g></svg>