<svg xmlns="http://www.w3.org/2000/svg" viewBox="0 0 757.85 216.36"><defs><style>.cls-1{fill:#deb40d;}.cls-2{isolation:isolate;}.cls-3{fill:#fff;}</style></defs><title>Asset 6</title><g id="Layer_2" data-name="Layer 2"><g id="Layer_1-2" data-name="Layer 1"><path id="Path_9" data-name="Path 9" class="cls-1" d="M0,216.36H178.42L70.61,0H36.8Z"/><g id="ARTPASS" class="cls-2"><g class="cls-2"><path class="cls-3" d="M134.42,205.08H105.05l-8.51-26.61H54l-8.42,26.61H16.35L59.91,85.43h32ZM90.36,157.77,77.51,117.56a52.89,52.89,0,0,1-2-10.77h-.67a45.81,45.81,0,0,1-2.08,10.43l-13,40.55Z"/><path class="cls-3" d="M252,205.08H221l-18.61-30.79c-1.39-2.33-2.73-4.42-4-6.25a34.58,34.58,0,0,0-3.88-4.72,15.54,15.54,0,0,0-4.09-3,10.28,10.28,0,0,0-4.63-1h-7.26v45.8h-27V85.43h42.72q43.56,0,43.56,32.54a33.66,33.66,0,0,1-1.92,11.56,32.17,32.17,0,0,1-5.42,9.55,34.45,34.45,0,0,1-8.47,7.35A43.72,43.72,0,0,1,211,151.27v.33a17.31,17.31,0,0,1,5.18,2.71,37.57,37.57,0,0,1,4.84,4.38,64.32,64.32,0,0,1,4.46,5.38q2.13,2.88,3.88,5.64Zm-73.43-99.45v33.29h11.69q8.67,0,13.93-5a16.7,16.7,0,0,0,5.34-12.6q0-15.69-18.77-15.68Z"/><path class="cls-3" d="M346,107.38H311.83v97.7h-27v-97.7h-34V85.43H346Z"/><path class="cls-3" d="M391.23,163.87v41.21h-27V85.43H406.5q45.22,0,45.22,38.13,0,18-13,29.17t-34.67,11.14Zm0-57.74v37.29h10.6q21.53,0,21.52-18.85,0-18.45-21.52-18.44Z"/><path class="cls-3" d="M566.59,205.08H537.22l-8.51-26.61H486.15l-8.43,26.61h-29.2L492.08,85.43H524Zm-44.06-47.31-12.85-40.21a52.21,52.21,0,0,1-2-10.77H507a45.81,45.81,0,0,1-2.08,10.43l-13,40.55Z"/><path class="cls-3" d="M578.24,200.5V173.79a51.29,51.29,0,0,0,33,12.19,38.2,38.2,0,0,0,8.89-.92,20.67,20.67,0,0,0,6.34-2.55,11.11,11.11,0,0,0,3.8-3.83,9.66,9.66,0,0,0,1.25-4.8,10.41,10.41,0,0,0-2-6.26,21.6,21.6,0,0,0-5.47-5.09,57.36,57.36,0,0,0-8.22-4.51q-4.75-2.16-10.26-4.42-14-5.83-20.9-14.27T577.73,119a32.5,32.5,0,0,1,3.76-16.07,31.89,31.89,0,0,1,10.22-11,46,46,0,0,1,15-6.39,77.07,77.07,0,0,1,18-2,108.44,108.44,0,0,1,16.56,1.13A65,65,0,0,1,654.58,88v25A39.43,39.43,0,0,0,648,109.3a50.81,50.81,0,0,0-7.3-2.63,54.18,54.18,0,0,0-7.47-1.54,51.77,51.77,0,0,0-7-.51,36.93,36.93,0,0,0-8.34.88,21.46,21.46,0,0,0-6.34,2.46,12.34,12.34,0,0,0-4,3.8,9,9,0,0,0-1.42,5,9.43,9.43,0,0,0,1.59,5.38,18.17,18.17,0,0,0,4.51,4.51,47.12,47.12,0,0,0,7.09,4.17q4.17,2.06,9.43,4.22a105.33,105.33,0,0,1,12.89,6.38,45.78,45.78,0,0,1,9.8,7.63,29.8,29.8,0,0,1,6.26,9.72,34.32,34.32,0,0,1,2.17,12.73q0,10-3.8,16.81a30.76,30.76,0,0,1-10.3,11,44.8,44.8,0,0,1-15.15,6,87,87,0,0,1-18.23,1.84,101.65,101.65,0,0,1-18.73-1.67A56.55,56.55,0,0,1,578.24,200.5Z"/><path class="cls-3" d="M676.24,200.5V173.79a51.34,51.34,0,0,0,33,12.19,38.2,38.2,0,0,0,8.89-.92,20.67,20.67,0,0,0,6.34-2.55,11.11,11.11,0,0,0,3.8-3.83,9.66,9.66,0,0,0,1.25-4.8,10.41,10.41,0,0,0-2-6.26,21.6,21.6,0,0,0-5.47-5.09,57.36,57.36,0,0,0-8.22-4.51q-4.75-2.16-10.26-4.42-14-5.83-20.9-14.27T675.74,119a32.5,32.5,0,0,1,3.76-16.07,31.89,31.89,0,0,1,10.22-11,46,46,0,0,1,15-6.39,77.07,77.07,0,0,1,18-2,108.44,108.44,0,0,1,16.56,1.13A65,65,0,0,1,752.59,88v25A39.84,39.84,0,0,0,746,109.3a50.81,50.81,0,0,0-7.3-2.63,54.18,54.18,0,0,0-7.47-1.54,51.77,51.77,0,0,0-7-.51,36.93,36.93,0,0,0-8.34.88,21.46,21.46,0,0,0-6.34,2.46,12.34,12.34,0,0,0-4,3.8,9,9,0,0,0-1.42,5,9.43,9.43,0,0,0,1.59,5.38,18.29,18.29,0,0,0,4.5,4.51,47.78,47.78,0,0,0,7.1,4.17q4.17,2.06,9.42,4.22a104.79,104.79,0,0,1,12.9,6.38,46,46,0,0,1,9.8,7.63,30,30,0,0,1,6.26,9.72,34.53,34.53,0,0,1,2.17,12.73q0,10-3.8,16.81a30.76,30.76,0,0,1-10.3,11,44.8,44.8,0,0,1-15.15,6,87,87,0,0,1-18.23,1.84,101.57,101.57,0,0,1-18.73-1.67A56.74,56.74,0,0,1,676.24,200.5Z"/></g></g></g></g></svg>