<svg xmlns="http://www.w3.org/2000/svg" viewBox="0 0 187.22 151.41"><defs><style>.cls-1{fill:#fff;}</style></defs><title>reward</title><g id="Layer_2" data-name="Layer 2"><g id="Layer_1-2" data-name="Layer 1"><path id="Union_9-2" data-name="Union 9-2" class="cls-1" d="M37.9,150.86l-7.22-9.25a1.37,1.37,0,0,0-1.48-.5L18,144.39a1.39,1.39,0,0,1-1.74-.94,1.35,1.35,0,0,1,0-.82l9.44-29.19a9.83,9.83,0,0,0,7,2.91,9.55,9.55,0,0,0,2.81-.4l8-2.41,6.16,5.66a4.45,4.45,0,0,0,.62.53l-9.9,30.7a1.4,1.4,0,0,1-1.35,1A1.34,1.34,0,0,1,37.9,150.86Zm34.29-.46-9.9-30.7c.21-.16.4-.34.61-.53l6.16-5.63,8,2.41a10.66,10.66,0,0,0,2.81.4,9.79,9.79,0,0,0,7-2.91L96.3,142.6a1.4,1.4,0,0,1-.92,1.75,1.43,1.43,0,0,1-.82,0l-11.23-3.28a1.37,1.37,0,0,0-1.48.5l-7.22,9.25a1.39,1.39,0,0,1-1.11.55A1.37,1.37,0,0,1,72.19,150.4Zm66.92-7s0-7.4,7.4-7.4h7.4V113.77l-24.2-30.94c-1.46-2-1.71-6.07-1.71-6.07h59.22s-.25,4-1.71,6.07l-24.2,30.94V136h7.4c7.4,0,7.4,7.4,7.4,7.4Zm16.28-48.11a5.93,5.93,0,1,0,5.93-5.93h0a5.92,5.92,0,0,0-5.92,5.92Zm-100.13,19L46.9,105a2,2,0,0,0-2.17-.46l-11.51,5a1.88,1.88,0,0,1-2.48-1,2.34,2.34,0,0,1-.09-.24l-3.5-12a1.9,1.9,0,0,0-1.73-1.36l-12.5-.52a1.9,1.9,0,0,1-1.83-1.95l0-.25L13.2,79.77a1.85,1.85,0,0,0-1-2l-11-5.92a1.88,1.88,0,0,1-.77-2.56,1.22,1.22,0,0,1,.12-.19L7.78,58.9a1.93,1.93,0,0,0,0-2.2L.35,46.58A1.89,1.89,0,0,1,.8,43.94L1,43.83l11-6.07a1.87,1.87,0,0,0,.92-2L10.6,23.47a1.91,1.91,0,0,1,1.55-2.21l.21,0,12.5-.72a1.91,1.91,0,0,0,1.7-1.39L29.87,7.06a1.91,1.91,0,0,1,2.34-1.31l.2.07L44,10.59a1.86,1.86,0,0,0,2.14-.49L54.35.66A1.9,1.9,0,0,1,57,.47l.16.15,8.36,9.32a1.94,1.94,0,0,0,2.16.46L79.23,5.45a1.89,1.89,0,0,1,2.49,1,2.25,2.25,0,0,1,.08.24l3.47,12.07A1.88,1.88,0,0,0,87,20.09l12.5.53a1.87,1.87,0,0,1,1.82,1.94,2.28,2.28,0,0,1,0,.26L99.23,35.17a1.82,1.82,0,0,0,1,2l11,5.91a1.89,1.89,0,0,1,.76,2.58,1,1,0,0,1-.1.17L104.64,56a1.93,1.93,0,0,0,0,2.2l7.4,10.12a1.82,1.82,0,0,1-.32,2.55,1.45,1.45,0,0,1-.26.17l-11,6.07a1.87,1.87,0,0,0-.93,2l2.26,12.32a1.9,1.9,0,0,1-1.54,2.2l-.22,0-12.5.71a1.94,1.94,0,0,0-1.71,1.39l-3.31,12.07a1.88,1.88,0,0,1-2.33,1.31l-.21-.07-11.57-4.77a1.86,1.86,0,0,0-2.13.5l-8.24,9.44a1.89,1.89,0,0,1-2.84,0Zm-33-56.79a34,34,0,1,0,34-34A34,34,0,0,0,22.26,57.49Zm44.88,20L56.24,70.7,45.35,77.48a2.69,2.69,0,0,1-3.7-.87,2.64,2.64,0,0,1-.32-2.07l3.06-12.47-9.81-8.3A2.69,2.69,0,0,1,36.13,49l12.81-.93,4.83-11.89a2.69,2.69,0,0,1,5,0l4.83,11.89L76.39,49a2.68,2.68,0,0,1,1.52,4.73l-9.81,8.3,3.06,12.47a2.7,2.7,0,0,1-2,3.27,2.29,2.29,0,0,1-.64.08A2.61,2.61,0,0,1,67.14,77.48Z"/></g></g></svg>