<svg xmlns="http://www.w3.org/2000/svg" viewBox="0 0 159.1 138.85"><defs><style>.cls-1{fill:#fff;}</style></defs><title>ticket</title><g id="Layer_2" data-name="Layer 2"><g id="Layer_1-2" data-name="Layer 1"><path id="Combined_Shape-2" data-name="Combined Shape-2" class="cls-1" d="M40.7,138.85,29.62,119.67c5.55-5.72,6.38-15,2-22.58S18.8,85.59,11.07,87.54L0,68.36,118.4,0l11.47,19.87c-4.23,5.84-4.44,14-.52,20.8s11.1,10.7,18.28,10L159.1,70.49Zm-1.19-72,22.21,38.47a1,1,0,0,0,1.43.38l58.37-33.69a1.06,1.06,0,0,0,.39-1.43L99.69,32.15a1,1,0,0,0-1.43-.38L39.9,65.46a1.06,1.06,0,0,0-.39,1.43ZM66,94.45a1,1,0,0,1-1.42-.38L50.74,70a1,1,0,0,1,.38-1.43L95.37,43.05a1,1,0,0,1,1.43.38l13.88,24.05a1,1,0,0,1-.38,1.42h0Z"/></g></g></svg>